<svg id="visual" viewBox="0 0 900 675" width="900" height="675" xmlns="http://www.w3.org/2000/svg" xmlns:xlink="http://www.w3.org/1999/xlink" version="1.1"><rect x="0" y="0" width="900" height="675" fill="#ffffff"></rect><path d="M0 215L21.5 213.3C43 211.7 86 208.3 128.8 211.8C171.7 215.3 214.3 225.7 257.2 220.5C300 215.3 343 194.7 385.8 192C428.7 189.3 471.3 204.7 514.2 213.8C557 223 600 226 642.8 222.2C685.7 218.3 728.3 207.7 771.2 215C814 222.3 857 247.7 878.5 260.3L900 273L900 0L878.5 0C857 0 814 0 771.2 0C728.3 0 685.7 0 642.8 0C600 0 557 0 514.2 0C471.3 0 428.7 0 385.8 0C343 0 300 0 257.2 0C214.3 0 171.7 0 128.8 0C86 0 43 0 21.5 0L0 0Z" fill="#ffffff"></path><path d="M0 170L21.5 169.7C43 169.3 86 168.7 128.8 171C171.7 173.3 214.3 178.7 257.2 181.3C300 184 343 184 385.8 187.7C428.7 191.3 471.3 198.7 514.2 204.3C557 210 600 214 642.8 211.3C685.7 208.7 728.3 199.3 771.2 201.3C814 203.3 857 216.7 878.5 223.3L900 230L900 0L878.5 0C857 0 814 0 771.2 0C728.3 0 685.7 0 642.8 0C600 0 557 0 514.2 0C471.3 0 428.7 0 385.8 0C343 0 300 0 257.2 0C214.3 0 171.7 0 128.8 0C86 0 43 0 21.5 0L0 0Z" fill="#939cff"></path><path d="M0 159L21.5 161.3C43 163.7 86 168.3 128.8 168.8C171.7 169.3 214.3 165.7 257.2 153.7C300 141.7 343 121.3 385.8 113.5C428.7 105.7 471.3 110.3 514.2 121.5C557 132.7 600 150.3 642.8 148.3C685.7 146.3 728.3 124.7 771.2 124.7C814 124.7 857 146.3 878.5 157.2L900 168L900 0L878.5 0C857 0 814 0 771.2 0C728.3 0 685.7 0 642.8 0C600 0 557 0 514.2 0C471.3 0 428.7 0 385.8 0C343 0 300 0 257.2 0C214.3 0 171.7 0 128.8 0C86 0 43 0 21.5 0L0 0Z" fill="#0066ff"></path><path d="M0 95L21.5 90.7C43 86.3 86 77.7 128.8 82C171.7 86.3 214.3 103.7 257.2 104.3C300 105 343 89 385.8 88.5C428.7 88 471.3 103 514.2 112.8C557 122.7 600 127.3 642.8 120.3C685.7 113.3 728.3 94.7 771.2 93.8C814 93 857 110 878.5 118.5L900 127L900 0L878.5 0C857 0 814 0 771.2 0C728.3 0 685.7 0 642.8 0C600 0 557 0 514.2 0C471.3 0 428.7 0 385.8 0C343 0 300 0 257.2 0C214.3 0 171.7 0 128.8 0C86 0 43 0 21.5 0L0 0Z" fill="#939cff"></path><path d="M0 76L21.5 71C43 66 86 56 128.8 49.2C171.7 42.3 214.3 38.7 257.2 37.5C300 36.3 343 37.7 385.8 38.2C428.7 38.7 471.3 38.3 514.2 42.7C557 47 600 56 642.8 57.7C685.7 59.3 728.3 53.7 771.2 49.2C814 44.7 857 41.3 878.5 39.7L900 38L900 0L878.5 0C857 0 814 0 771.2 0C728.3 0 685.7 0 642.8 0C600 0 557 0 514.2 0C471.3 0 428.7 0 385.8 0C343 0 300 0 257.2 0C214.3 0 171.7 0 128.8 0C86 0 43 0 21.5 0L0 0Z" fill="#ffffff"></path></svg>