<svg xmlns="http://www.w3.org/2000/svg" version="1.1" xmlns:xlink="http://www.w3.org/1999/xlink" xmlns:svgjs="http://svgjs.dev/svgjs" viewBox="0 0 800 800"><defs><linearGradient x1="50%" y1="0%" x2="50%" y2="100%" id="uundulate-grad"><stop stop-color="hsl(0, 0%, 0%)" stop-opacity="1" offset="45%"></stop><stop stop-color="hsl(0, 0%, 28%, 1)" stop-opacity="1" offset="100%"></stop></linearGradient></defs><g stroke-width="2" stroke="url(#uundulate-grad)" fill="none"><path d="M658.0665202128066 240.62757166594753C694.6250310485152 314.57457993743685 668.0530703656916 549.756993504756 615.9170613213805 613.6828983302635C563.7810522770692 677.608803155771 472.6310192049575 571.9801702805751 407.8136768001125 547.4719148283832C342.99633439526735 522.9636593761915 363.3376949301254 533.1182894860804 304.79381777812466 496.0432721597425C246.24994062612393 458.96825483340467 140.07635566219403 437.52478819063117 126.80306647050918 369.51183166196165C113.52977727882433 301.498875133292 175.7417915664808 192.659116871055 241.08202965803684 169.58108082212857C306.42226774959283 146.50304477320213 353.5644404444017 243.93590636798564 440.4362093099787 258.73725862711467C527.3079781755557 273.53861088624376 621.508009377098 166.68056339445815 658.0665202128066 240.62757166594753C694.6250310485152 314.57457993743685 668.0530703656916 549.756993504756 615.9170613213805 613.6828983302635 "></path><path d="M646.3362210651719 247.8717507592567C681.2329814083483 318.457531382042 655.8688371201986 542.9498352417556 606.1026466688106 603.9700171206493C556.3364562174227 664.9901989995428 469.32960646677054 564.162867618674 407.4585068985093 540.7686237779453C345.5874073302481 517.3743799372169 365.00416056806705 527.0674359512018 309.1213687411573 491.677646685152C253.23857691424757 456.2878574191021 151.89106399413265 435.81909380554566 139.22110612934256 370.8976353009066C126.55114826455252 305.9761767962674 185.93534372095183 202.08368027322297 248.30557099016443 180.05464586288412C310.67579825937696 158.0256114525452 355.67514492260375 251.0297066112022 438.59819702156346 265.1582701312799C521.5212491205233 279.28683365135765 611.4394607219955 177.2859701364714 646.3362210651719 247.8717507592567C681.2329814083483 318.457531382042 655.8688371201986 542.9498352417556 606.1026466688106 603.9700171206493 "></path><path d="M634.6059219175372 255.11596037014408C667.8409317681815 322.3405133442253 643.6846038747055 536.1427074963335 596.2882320162407 594.2571664286131C548.8918601577759 652.3716253608927 466.0281937285836 556.3455954743508 407.10333699690625 534.0653632450856C348.1784802652289 511.7851310158203 366.6706262060088 521.0166129339012 313.44891970418996 487.3120517281395C260.22721320237116 453.6074905223777 163.70577232607127 434.1134299380383 151.639145788176 372.28346945742953C139.57251925028066 310.4535089768209 196.12889587542287 211.50827419296905 255.529112322292 190.52824142121773C314.92932876916115 169.54820864946646 357.78584940080555 258.12353737199686 436.7601847331482 271.5793121530233C515.7345200654909 285.03508693404973 601.370912066893 187.8914073960628 634.6059219175372 255.11596037014408C667.8409317681815 322.3405133442253 643.6846038747055 536.1427074963335 596.2882320162407 594.2571664286131 "></path><path d="M622.8756380286916 262.3601699810314C654.4488973868035 326.22349530640855 631.5003858880013 529.3355797509114 586.4738326224599 584.544315736577C541.4472793569184 639.7530517222426 462.72679624918555 548.5283233300279 406.74818235409214 527.3621027122258C350.7695684589987 506.1958820944237 368.33710710273965 514.9657899166007 317.7764859260118 482.94645677112703C267.21586474928387 450.9271236256534 175.52049591679895 432.4077660705309 164.05720070579844 373.6693036139526C152.59390549479787 314.9308411573744 206.32246328868297 220.93286811271514 262.75266891320865 201.0018369795514C319.18287453773434 181.07080584638766 359.89656913779663 265.21736813279153 434.9221877035221 278.00035417476664C509.9478062692476 290.78334021674175 591.3023786705796 198.49684465565417 622.8756380286916 262.3601699810314C654.4488973868035 326.22349530640855 631.5003858880013 529.3355797509114 586.4738326224599 584.544315736577 "></path><path d="M611.1453388810569 269.6043490743406C641.0568477466368 330.1064467510137 619.3161526425083 522.5284214879111 576.65941796989 574.8314345269628C534.0026832972719 627.1344475660144 459.4253835109987 540.7110206681268 406.3930124524891 520.658811661788C353.36064139397945 500.60660265544925 370.0035727406814 508.9149363817221 322.10403688904444 478.58083129653653C274.2045010374075 448.24672621135096 187.33520424873757 430.7020716854454 176.47524036463182 375.0551072528975C165.615276480526 319.4081428203498 216.51601544315406 230.3574315148831 269.97621024533623 211.4754020203069C323.43640504751846 192.59337252573073 362.00727361599843 272.31116837600814 433.08417541510687 284.4213656789319C504.1610772142153 296.5315629818557 581.2338300154772 209.10225139766743 611.1453388810569 269.6043490743406C641.0568477466368 330.1064467510137 619.3161526425083 522.5284214879111 576.65941796989 574.8314345269628 "></path><path d="M599.4150397334222 276.8485586852279C627.6647981064698 333.98942871319696 607.1319193970153 515.721293742489 566.8450033173202 565.1185838349267C526.5580872376252 614.5158739273643 456.1239707728116 532.8937485238038 406.0378425508859 513.9555511289282C355.9517143289602 495.0173537340527 371.6700383786232 502.86411336442154 326.43158785207714 474.21523633952404C281.1931373255311 445.56635931462665 199.1499125806762 428.996407817938 188.8932800234652 376.4409414094206C178.6366474662542 323.8854750009032 226.7095675976251 239.7820254346292 277.19975157746387 221.94899757864056C327.6899355573026 204.11596972265193 364.11797809420034 279.4049991368028 431.2461631266916 290.84240770067527C498.374348159183 302.2798162645477 571.1652813603747 219.70768865725887 599.4150397334222 276.8485586852279C627.6647981064698 333.98942871319696 607.1319193970153 515.721293742489 566.8450033173202 565.1185838349267 "></path><path d="M587.6847405857875 284.09276829611525C614.272748466303 337.87241067538025 594.9476861515222 508.9141659970669 557.0305886647504 555.4057331428905C519.1134911779786 601.8973002887142 452.82255803462465 525.0764763794807 405.68267264928284 507.2522905960685C358.5427872639409 489.42810481265633 373.33650401656485 496.813290347121 330.75913881510985 469.84964138251166C288.18177361365474 442.88599241790223 210.96462091261486 427.2907439504306 201.31131968229857 377.82677556594365C191.65801845198234 328.36280718145673 236.90311975209613 249.20661935437522 284.4232929095914 232.42259313697417C331.9434660670867 215.63856691957312 366.2286825724023 286.4988298975975 429.40815083827647 297.2634497224186C492.5876191041506 308.0280695472398 561.0967327052722 230.31312591685025 587.6847405857875 284.09276829611525C614.272748466303 337.87241067538025 594.9476861515222 508.9141659970669 557.0305886647504 555.4057331428905 "></path><path d="M575.954441438153 291.33697790700256C600.880698826136 341.75539263756355 582.7634529060291 502.1070382516448 547.2161740121805 545.6928824508544C511.6688951183321 589.2787266500641 449.5211452964377 517.2592042351578 405.32750274767966 500.54903006320876C361.13386019892164 483.83885589125975 375.0029696545066 490.76246732982054 335.0866897781425 465.4840464254992C295.1704099017784 440.2056255211778 222.77932924455348 425.58508008292324 213.72935934113195 379.2126097224667C204.67938943771048 332.8401393620102 247.09667190656717 258.6312132741213 291.64683424171903 242.89618869530784C336.19699657687084 227.16116411649438 368.33938705060416 293.5926606583922 427.5701385498612 303.684491744162C486.80089004911815 313.7763228299318 551.0281840501698 240.91856317644164 575.954441438153 291.33697790700256C600.880698826136 341.75539263756355 582.7634529060291 502.1070382516448 547.2161740121805 545.6928824508544 "></path><path d="M564.2241575493074 298.5811875178899C587.4886644447583 345.6383745997468 570.579234919325 495.29991050622255 537.4017746183997 535.9800317588183C504.2243143174744 576.660153011414 446.2197478170398 509.4419320908347 404.97234810486566 493.845769530349C363.72494839269143 478.2496069698633 376.66945055123745 484.71164431252 339.41425599996427 461.1184514684867C302.1590614486911 437.5252586244535 234.59405283528116 423.87941621541586 226.14741425875445 380.59844387898977C217.7007756822277 337.3174715425637 257.29023931982726 268.0558071938674 298.8703908326357 253.36978425364146C340.45054234544403 238.68376131341557 370.45010678759513 300.6864914191869 425.732141520235 310.10553376590536C481.0141762528749 319.5245761126239 540.9596506538564 251.52400043603302 564.2241575493074 298.5811875178899C587.4886644447583 345.6383745997468 570.579234919325 495.29991050622255 537.4017746183997 535.9800317588183 "></path><path d="M552.4938431428836 305.8253666111991C574.0965995458023 349.5213260443519 558.3949864150429 488.4927522432223 527.5873447070408 526.267150549204C496.7797029990388 564.0415488551857 442.91831982006374 501.62462942893353 404.6171629444734 487.1424784799111C366.31600606888315 472.6603275308887 378.33590093039015 478.6607907776413 343.74179170420786 456.7528259938962C309.1476824780256 434.84486121015107 246.40874590843072 422.17372183033035 238.56543865879877 381.9842475179347C230.72213140916682 341.79477320553906 267.48377621550924 277.48037059603536 306.0939169059742 263.843349294397C344.7040575964391 250.20632799275864 372.560796007008 307.78029166240344 423.8941139730307 316.52654527007064C475.22743193905353 325.2727988777378 530.8910867399649 262.1294071780463 552.4938431428836 305.8253666111991C574.0965995458023 349.5213260443519 558.3949864150429 488.4927522432223 527.5873447070408 526.267150549204 "></path><path d="M540.763559254038 313.0695762220864C560.7045651644245 353.4043080065352 546.210768428339 481.68562449780006 517.77294531326 516.5542998571678C489.33512219818124 551.4229752165356 439.6169223406657 493.8073572846106 404.26200830165936 480.43921794705136C368.90709426265295 467.07107860949213 380.0023818271209 472.60996776034074 348.0693579260296 452.3872310368837C316.1363340249383 432.16449431342664 258.2234694991584 420.46805796282297 250.9834935764212 383.37008167445777C243.74351765368402 346.27210538609256 277.67734362876934 286.90496451578144 313.31747349689084 274.31694485273067C348.9576033650123 261.72892518967984 374.67151574399895 314.8741224231981 422.0561169434046 322.947587291814C469.44071814281017 331.0210521604298 520.8225533436514 272.73484443763766 540.763559254038 313.0695762220864C560.7045651644245 353.4043080065352 546.210768428339 481.68562449780006 517.77294531326 516.5542998571678 "></path><path d="M529.0332601064033 320.3138010917628C547.3125155242576 357.2873052275075 534.0265351828458 474.878512011167 507.95853066069026 506.8414644239208C481.8905261385346 538.8044168366746 436.31550960247876 485.9901003990766 403.90683840005624 473.73597267298067C371.4981671976337 461.48184494688485 381.6688474650627 466.55916000182924 352.39690888906233 448.0216513386604C323.12497031306197 429.4841426754914 270.038177831097 418.76240935410465 263.4015332352546 384.7559310897699C256.76488863941216 350.74945282543507 287.87089578324037 296.3295736943166 320.5410148290184 284.79055566985335C353.2111338747964 273.25153764539016 376.78222022220086 321.96796844278185 420.21810465498936 329.3686445723464C463.65398908777786 336.76932070191094 510.754004688549 283.3402969560181 529.0332601064033 320.3138010917628C547.3125155242576 357.2873052275075 534.0265351828458 474.878512011167 507.95853066069026 506.8414644239208 "></path><path d="M517.3029609587686 327.55798018507204C533.9204658840907 361.17025667211266 521.8423019373528 468.07135374816676 498.14411600812036 497.12858321430656C474.44593007888795 526.1858126804464 433.0140968642918 478.1727977371754 403.5516684984531 467.0326816225428C374.08924013261446 455.89256550791015 383.3353131030044 460.50830646695067 356.724459852095 443.65602586406976C330.1136066011856 426.80374526118885 281.85288616303563 417.05671496901914 275.81957289408797 386.14173472871477C269.7862596251403 355.22675448841045 298.06444793771146 305.7541370964845 327.764556161146 295.2641207106089C357.4646643845806 284.77410432473323 378.8929247004028 329.06176868599846 418.3800923665741 335.7896560765116C457.86726003274543 342.51754346702484 500.6854560334465 293.9457036980314 517.3029609587686 327.55798018507204C533.9204658840907 361.17025667211266 521.8423019373528 468.07135374816676 498.14411600812036 497.12858321430656 "></path><path d="M505.5726618111339 334.8021745371703C520.5284162439239 365.05322337550683 509.6580686918596 461.2642107439556 488.32970135555047 487.4157172634814C467.0013340192414 513.5672237830072 429.7126841261048 470.3555103340634 403.19649859685 460.329405830894C376.6803130675952 450.3033013277246 385.0017787409462 454.45746819086105 361.0520108151277 439.29041564826827C337.1022428893092 424.1233631056755 293.66759449497425 415.3510358427227 288.23761255292135 387.52755362644876C282.8076306108685 359.7040714101749 308.2580000921825 315.1787157574415 334.9880974932736 305.73770101015344C361.71819489436473 296.29668626286536 381.0036291786047 336.15558418800407 416.5420800781589 342.21068283946596C452.0805309777131 348.26578149092785 490.6169073783441 304.55112569883374 505.5726618111339 334.8021745371703C520.5284162439239 365.05322337550683 509.6580686918596 461.2642107439556 488.32970135555047 487.4157172634814 "></path><path d="M493.8423626634992 342.0463841480576C507.136366603757 368.9362053376901 497.4738354463666 454.45708299853345 478.5152867029807 477.70286657144527C459.5567379595948 500.9486501443571 426.4112713879178 462.53823818974035 402.8413286952469 453.62614529803426C379.2713860025759 444.71405240632816 386.6682443788879 448.4066451735605 365.3795617781604 434.92482069125583C344.09087917743284 421.4429962089511 305.48230282691287 413.6453719752153 300.6556522117548 388.9133877829718C295.82900159659664 364.18140359072834 318.45155224665353 324.6033096771876 342.21163882540117 316.2112965684871C365.97172540414886 307.81928345978656 383.1143336568066 343.24941494879874 414.7040677897437 348.6317248612093C446.29380192268076 354.01403477361987 480.54835872324156 315.1565629584251 493.8423626634992 342.0463841480576C507.136366603757 368.9362053376901 497.4738354463666 454.45708299853345 478.5152867029807 477.70286657144527 "></path><path d="M482.11206351586463 349.2905785001559C493.7443169635901 372.81917204108436 485.28960220087345 447.6499399943222 468.7008720504108 467.9900006206201C452.11214189994814 488.3300612469179 423.1098586497308 454.7209507866283 402.48615879364377 446.92286950638544C381.86245893755665 439.1247882261426 388.33471001682966 442.3558068974709 369.70711274119304 430.5592104754543C351.0795154655565 418.7626140534377 317.2970111588515 411.93969284891887 313.07369187058816 390.2992066807058C308.8503725823248 368.6587205124928 328.64510440112457 334.02788833814463 349.43518015752875 326.68487686803167C370.225255913933 319.3418653979187 385.2250381350085 350.34323045080436 412.86605550132845 355.05275162416365C440.5070728676484 359.7622727975229 470.47981006813916 325.76198495922745 482.11206351586463 349.2905785001559C493.7443169635901 372.81917204108436 485.28960220087345 447.6499399943222 468.7008720504108 467.9900006206201 "></path><path d="M470.38176436822994 356.5347881110432C480.3522673234232 376.7021540032676 473.1053689553804 440.84281224890003 458.88645739784096 458.2771499285839C444.66754584030156 475.7114876082678 419.8084459115438 446.9036786423053 402.1309888920406 440.2196089735257C384.4535318725374 433.53553930474607 390.0011756547714 436.30498388017037 374.03466370422575 426.19361551844185C358.0681517536801 416.0822471567133 329.1117194907901 410.2340289814115 325.49173152942154 391.6850408372289C321.8717435680529 373.1360526930463 338.8386565555956 343.4524822578907 356.65872148965633 337.15847242636534C374.4787864237171 330.86446259483995 387.3357426132104 357.4370612115991 411.02804321291325 361.473793645907C434.720343812616 365.5105260802149 460.41126141303664 336.36742221881883 470.38176436822994 356.5347881110432C480.3522673234232 376.7021540032676 473.1053689553804 440.84281224890003 458.88645739784096 458.2771499285839 "></path><path d="M458.65149573817337 363.7789977219305C466.9602482008344 380.58513596545083 460.92116622746545 434.0356845034779 449.07207326284924 448.5642992365478C437.22298029823304 463.0929139696177 416.50706369093496 439.08640649798224 401.77584950801565 433.5163484406659C387.0446353250963 427.9462903833496 391.66767181029127 430.25416086286987 378.3622451848366 421.8280205614294C365.05681855938184 413.40188025998896 340.9264583403069 408.5283651139041 337.90980170583305 393.07087499375194C334.89314507135924 377.6133848735997 349.03223922764477 352.8770761776368 363.88229333936204 347.63206798469895C378.73234745107936 342.38705979176115 389.44647760899045 364.53089197239376 409.1900614420761 367.89483566765034C428.9336452751618 371.258779362907 450.3427432755123 346.9728594784102 458.65149573817337 363.7789977219305C466.9602482008344 380.58513596545083 460.92116622746545 434.0356845034779 449.07207326284924 448.5642992365478 "></path><path d="M446.92116607296055 371.0231920740288C453.56816804308943 384.46810266884506 448.73690246439423 427.2285414992667 439.2576280927013 438.85143328572263C429.77835372100833 450.47432507217854 413.20562043516986 431.2691190948702 401.42064908883435 426.81307264901716C389.6356777424989 422.3570262031641 393.3341069306549 424.20332258678025 382.6897656302911 417.4624103456279C372.04542432992736 410.7214981044756 352.7411361546674 406.82268598760766 350.3278108470883 394.45669389148594C347.91448553950926 382.09070179536417 359.2257608645377 362.30165483859383 371.10580415391155 358.10564828424356C382.98584744328537 353.9096417298933 391.55715156961423 371.6247074743994 407.3520186360828 374.3158624306047C423.14688570255134 377.00701738680993 440.2741641028317 357.57828147921254 446.92116607296055 371.0231920740288C453.56816804308943 384.46810266884506 448.73690246439423 427.2285414992667 439.2576280927013 438.85143328572263 "></path><path d="M435.19089744290403 378.2673864261271C440.1761489205006 388.35106937223924 436.55269973647927 420.4213984950555 429.44324395770957 429.13856733489746C422.3337881789398 437.8557361747394 409.90423821456096 423.4518316917581 401.06550970480936 420.10979685736834C392.22678119505775 416.7677620229785 395.00060308617475 418.1524843106907 387.01734711090194 413.0968001298264C379.0340911356291 408.0411159489621 364.55587500418414 405.1170068613112 362.7458810234998 395.8425127892199C360.9358870428155 386.5680187171286 369.4193435365869 371.7262334995508 378.32937600361726 368.5792285837881C387.2394084706476 365.4322236680254 393.66788656539427 378.718522976405 405.51403686524566 380.73688919355897C417.36018716509705 382.75525541071295 430.2056459653074 368.1837034800149 435.19089744290403 378.2673864261271C440.1761489205006 388.35106937223924 436.55269973647927 420.4213984950555 429.44324395770957 429.13856733489746 "></path><path d="M423.46059829526934 385.5115960370144C426.78409928033375 392.23405133442253 424.3684664909862 413.61427074963336 419.6288293051397 419.4257166428613C414.8891921192932 425.2371625360893 406.602825476374 415.63455954743506 400.71033980320624 413.4065363245086C394.81785413003854 411.17851310158204 396.6670687241165 412.1016612933901 391.34489807393464 408.73120517281393C386.02272742375277 405.3607490522378 376.37058333612276 403.4113429938038 375.16392068233324 397.22834694574294C373.95725802854366 391.0453508976821 379.61289569105793 381.1508274192969 385.55291733574484 379.0528241421218C391.49293898043175 376.95482086494667 395.7785910435962 385.8123537371997 403.67602457683046 387.1579312153023C411.57345811006473 388.50350869340497 420.1370973102049 378.7891407396063 423.46059829526934 385.5115960370144C426.78409928033375 392.23405133442253 424.3684664909862 413.61427074963336 419.6288293051397 419.4257166428613 "></path><path d="M411.7302991476347 392.75580564790175C413.3920496401669 396.11703329660577 412.1842332454931 406.8071430042112 409.81441465256984 409.7128659508252C407.4445960596466 412.61858889743917 403.30141273818697 407.81728740311206 400.3551699016031 406.7032757916488C397.40892706501927 405.5892641801855 398.33353436205823 406.0508382760896 395.6724490369673 404.3656102158015C393.01136371187636 402.6803821555134 388.1852916680614 401.70567912629645 387.5819603411666 398.614181102266C386.97862901427186 395.52268307823556 389.80644784552896 390.575421339043 392.7764586678724 389.5264197004554C395.7464694902159 388.47741806186787 397.8892955217981 392.9061844979944 401.8380122884152 393.5789732370457C405.78672905503237 394.25176197609704 410.06854865510246 389.3945779991977 411.7302991476347 392.75580564790175C413.3920496401669 396.11703329660577 412.1842332454931 406.8071430042112 409.81441465256984 409.7128659508252 "></path></g></svg>